<svg width="24" height="24" viewBox="0 0 24 24" fill="none" xmlns="http://www.w3.org/2000/svg">
<path fill-rule="evenodd" clip-rule="evenodd" d="M18.8571 4.42857H20.9893C22.4893 4.42857 24 5.44107 24 7.35357V14.4143C24 16.075 22.4839 17.2857 20.9893 17.2857H18.8571V23.2857H18.4286H18H6H5.41071H5.14286V17.2857H3.01071C1.51607 17.2857 0 16.0214 0 13.9857V7.35357C0 5.33393 1.51607 4.42857 3.01071 4.42857H5.14286V1H18.8571V4.42857ZM6 22.4286H18V13H6V22.4286ZM6 4.42868H18V1.85725H6V4.42868ZM19.6605 7.85714H20.5712V7H19.6605V7.85714ZM17.1427 14.7143H6.85698V15.5714H17.1427V14.7143ZM6.85698 17.2857H17.1427V18.1429H6.85698V17.2857ZM17.1427 19.8573H6.85698V20.7144H17.1427V19.8573Z" fill="#001B36"/>
<mask id="mask0" mask-type="alpha" maskUnits="userSpaceOnUse" x="0" y="1" width="24" height="23">
<path fill-rule="evenodd" clip-rule="evenodd" d="M18.8571 4.42857H20.9893C22.4893 4.42857 24 5.44107 24 7.35357V14.4143C24 16.075 22.4839 17.2857 20.9893 17.2857H18.8571V23.2857H18.4286H18H6H5.41071H5.14286V17.2857H3.01071C1.51607 17.2857 0 16.0214 0 13.9857V7.35357C0 5.33393 1.51607 4.42857 3.01071 4.42857H5.14286V1H18.8571V4.42857ZM6 22.4286H18V13H6V22.4286ZM6 4.42868H18V1.85725H6V4.42868ZM19.6605 7.85714H20.5712V7H19.6605V7.85714ZM17.1427 14.7143H6.85698V15.5714H17.1427V14.7143ZM6.85698 17.2857H17.1427V18.1429H6.85698V17.2857ZM17.1427 19.8573H6.85698V20.7144H17.1427V19.8573Z" fill="white"/>
</mask>
<g mask="url(#mask0)">
<rect width="24" height="24" fill="#001B36"/>
</g>
</svg>
