<svg width="24" height="24" viewBox="0 0 24 24" fill="none" xmlns="http://www.w3.org/2000/svg">
<path fill-rule="evenodd" clip-rule="evenodd" d="M23.6891 20.1249L18.4166 14.7844C19.2746 13.2861 19.7223 11.6199 19.7223 9.94128C19.7223 4.49507 15.2953 0.0622559 9.86114 0.0622559C4.42694 0.0622559 0 4.49507 0 9.94128C0 15.3875 4.42694 19.8203 9.86114 19.8203C11.5959 19.8203 13.3119 19.3416 14.8415 18.4277L20.0891 23.7495C20.2073 23.8676 20.3751 23.9423 20.543 23.9423C20.7109 23.9423 20.8788 23.8739 20.9969 23.7495L23.6891 21.0264C23.9378 20.7715 23.9378 20.3736 23.6891 20.1249ZM9.86098 3.91054C13.1812 3.91054 15.8796 6.615 15.8796 9.94116C15.8796 13.2673 13.1812 15.9718 9.86098 15.9718C6.54077 15.9718 3.84232 13.2673 3.84232 9.94116C3.84232 6.615 6.54077 3.91054 9.86098 3.91054Z" fill="#001B36"/>
<mask id="mask0" mask-type="alpha" maskUnits="userSpaceOnUse" x="0" y="0" width="24" height="24">
<path fill-rule="evenodd" clip-rule="evenodd" d="M23.6891 20.1249L18.4166 14.7844C19.2746 13.2861 19.7223 11.6199 19.7223 9.94128C19.7223 4.49507 15.2953 0.0622559 9.86114 0.0622559C4.42694 0.0622559 0 4.49507 0 9.94128C0 15.3875 4.42694 19.8203 9.86114 19.8203C11.5959 19.8203 13.3119 19.3416 14.8415 18.4277L20.0891 23.7495C20.2073 23.8676 20.3751 23.9423 20.543 23.9423C20.7109 23.9423 20.8788 23.8739 20.9969 23.7495L23.6891 21.0264C23.9378 20.7715 23.9378 20.3736 23.6891 20.1249ZM9.86098 3.91054C13.1812 3.91054 15.8796 6.615 15.8796 9.94116C15.8796 13.2673 13.1812 15.9718 9.86098 15.9718C6.54077 15.9718 3.84232 13.2673 3.84232 9.94116C3.84232 6.615 6.54077 3.91054 9.86098 3.91054Z" fill="white"/>
</mask>
<g mask="url(#mask0)">
<rect width="24" height="24" fill="#001B36"/>
</g>
</svg>
