<svg width="25" height="24" viewBox="0 0 25 24" fill="none" xmlns="http://www.w3.org/2000/svg">
<path fill-rule="evenodd" clip-rule="evenodd" d="M23.8674 3.68854L20.6993 1.19046C20.6012 1.10969 20.48 1.052 20.3415 1.052C20.203 1.052 20.0761 1.10969 19.978 1.19623L8.45404 16.0001C8.45404 16.0001 3.92411 11.6443 3.79716 11.5174C3.6702 11.3905 3.50285 11.177 3.24895 11.177C2.99504 11.177 2.87963 11.3558 2.7469 11.4885C2.6488 11.5924 1.03303 13.2885 0.236684 14.1308C0.190519 14.1828 0.161666 14.2116 0.121272 14.252C0.0520243 14.3501 0.00585937 14.4597 0.00585937 14.5808C0.00585937 14.7078 0.0520243 14.8116 0.121272 14.9097L0.282849 15.0597C0.282849 15.0597 8.32132 22.7789 8.45404 22.9116C8.58677 23.0443 8.74835 23.2116 8.98494 23.2116C9.21576 23.2116 9.4062 22.9635 9.51584 22.8539L23.8904 4.39239C23.9597 4.29431 24.0059 4.18469 24.0059 4.05777C24.0059 3.91354 23.9482 3.79239 23.8674 3.68854Z" fill="#001B36"/>
<mask id="mask0" mask-type="alpha" maskUnits="userSpaceOnUse" x="0" y="1" width="25" height="23">
<path fill-rule="evenodd" clip-rule="evenodd" d="M23.8674 3.68854L20.6993 1.19046C20.6012 1.10969 20.48 1.052 20.3415 1.052C20.203 1.052 20.0761 1.10969 19.978 1.19623L8.45404 16.0001C8.45404 16.0001 3.92411 11.6443 3.79716 11.5174C3.6702 11.3905 3.50285 11.177 3.24895 11.177C2.99504 11.177 2.87963 11.3558 2.7469 11.4885C2.6488 11.5924 1.03303 13.2885 0.236684 14.1308C0.190519 14.1828 0.161666 14.2116 0.121272 14.252C0.0520243 14.3501 0.00585937 14.4597 0.00585937 14.5808C0.00585937 14.7078 0.0520243 14.8116 0.121272 14.9097L0.282849 15.0597C0.282849 15.0597 8.32132 22.7789 8.45404 22.9116C8.58677 23.0443 8.74835 23.2116 8.98494 23.2116C9.21576 23.2116 9.4062 22.9635 9.51584 22.8539L23.8904 4.39239C23.9597 4.29431 24.0059 4.18469 24.0059 4.05777C24.0059 3.91354 23.9482 3.79239 23.8674 3.68854Z" fill="white"/>
</mask>
<g mask="url(#mask0)">
<rect width="24" height="24" fill="#001B36"/>
</g>
</svg>
