<svg width="8" height="8" viewBox="0 0 8 8" fill="none" xmlns="http://www.w3.org/2000/svg">
<path d="M7.73448 6.47972L5.24264 3.99144L7.73448 1.50316C8.07773 1.1599 8.07773 0.602744 7.73536 0.258554C7.39122 -0.0864803 6.83406 -0.0855929 6.48991 0.257666L3.99635 2.74772L1.50278 0.257666C1.15864 -0.0855929 0.60148 -0.0864803 0.257334 0.258554C-0.0859253 0.6027 -0.0859258 1.15986 0.258221 1.50316L2.75005 3.99144L0.258221 6.47972C-0.0859258 6.82298 -0.0859253 7.38014 0.257334 7.72433C0.428985 7.89683 0.655177 7.98221 0.880525 7.98221C1.10587 7.98221 1.33118 7.89594 1.50283 7.72518L3.99639 5.23512L6.48996 7.72518C6.66161 7.89683 6.88691 7.98221 7.11226 7.98221C7.33761 7.98221 7.5638 7.89594 7.73545 7.72433C8.07862 7.38014 8.07862 6.82298 7.73448 6.47972Z" fill="#BEBEBE"/>
</svg>
