<svg width="15" height="15" viewBox="0 0 15 15" fill="none" xmlns="http://www.w3.org/2000/svg">
<mask id="path-1-inside-1" fill="white">
<path d="M14.9085 13.8089L10.5511 9.80307C11.3775 8.86507 11.875 7.67257 11.875 6.37423C11.875 3.36445 9.21143 0.915771 5.9375 0.915771C2.66356 0.915771 0 3.36445 0 6.37423C0 9.38402 2.66359 11.8327 5.93753 11.8327C7.34981 11.8327 8.64697 11.3753 9.66729 10.6156L14.0247 14.6214C14.1468 14.7336 14.3446 14.7336 14.4667 14.6214L14.9085 14.2152C15.0305 14.103 15.0305 13.9211 14.9085 13.8089ZM5.93753 10.6835C3.35268 10.6835 1.25001 8.75052 1.25001 6.37423C1.25001 3.99795 3.35268 2.06493 5.93753 2.06493C8.52237 2.06493 10.625 3.99795 10.625 6.37423C10.625 8.75052 8.52237 10.6835 5.93753 10.6835Z"/>
</mask>
<path d="M14.9085 13.8089L10.5511 9.80307C11.3775 8.86507 11.875 7.67257 11.875 6.37423C11.875 3.36445 9.21143 0.915771 5.9375 0.915771C2.66356 0.915771 0 3.36445 0 6.37423C0 9.38402 2.66359 11.8327 5.93753 11.8327C7.34981 11.8327 8.64697 11.3753 9.66729 10.6156L14.0247 14.6214C14.1468 14.7336 14.3446 14.7336 14.4667 14.6214L14.9085 14.2152C15.0305 14.103 15.0305 13.9211 14.9085 13.8089ZM5.93753 10.6835C3.35268 10.6835 1.25001 8.75052 1.25001 6.37423C1.25001 3.99795 3.35268 2.06493 5.93753 2.06493C8.52237 2.06493 10.625 3.99795 10.625 6.37423C10.625 8.75052 8.52237 10.6835 5.93753 10.6835Z" fill="black"/>
<path d="M14.9085 13.8089L4.7567 24.8516L4.75802 24.8528L14.9085 13.8089ZM10.5511 9.80307L-0.703532 -0.113285L-10.4127 10.9062L0.399306 20.8458L10.5511 9.80307ZM9.66729 10.6156L19.819 -0.427166L10.6731 -8.83514L0.708747 -1.41542L9.66729 10.6156ZM14.0247 14.6214L3.87293 25.6641L3.87557 25.6665L14.0247 14.6214ZM14.4667 14.6214L24.6158 25.6665L24.6188 25.6638L14.4667 14.6214ZM14.9085 14.2152L25.0606 25.2576L25.0616 25.2567L14.9085 14.2152ZM25.0602 2.76616L20.7028 -1.23966L0.399306 20.8458L4.7567 24.8516L25.0602 2.76616ZM21.8057 19.7194C24.8398 16.2758 26.875 11.6238 26.875 6.37423H-3.12498C-3.12498 3.72134 -2.08472 1.4543 -0.703532 -0.113285L21.8057 19.7194ZM26.875 6.37423C26.875 -6.08282 16.2828 -14.0842 5.9375 -14.0842V15.9158C2.14008 15.9158 -3.12498 12.8117 -3.12498 6.37423H26.875ZM5.9375 -14.0842C-4.40789 -14.0842 -15 -6.08273 -15 6.37423H15C15 12.8116 9.73501 15.9158 5.9375 15.9158V-14.0842ZM-15 6.37423C-15 18.8313 -4.40776 26.8327 5.93753 26.8327V-3.1673C9.73494 -3.1673 15 -0.0632571 15 6.37423H-15ZM5.93753 26.8327C10.6097 26.8327 15.0424 25.3149 18.6258 22.6465L0.708747 -1.41542C2.25156 -2.56423 4.08993 -3.1673 5.93753 -3.1673V26.8327ZM-0.484465 21.6583L3.87293 25.6641L24.1764 3.57866L19.819 -0.427166L-0.484465 21.6583ZM3.87557 25.6665C9.73633 31.0518 18.755 31.0518 24.6158 25.6665L4.31754 3.57623C9.93414 -1.58472 18.5572 -1.58472 24.1738 3.57623L3.87557 25.6665ZM24.6188 25.6638L25.0606 25.2576L4.75636 3.17279L4.31454 3.57899L24.6188 25.6638ZM25.0616 25.2567C31.6457 19.2023 31.6475 8.82049 25.0589 2.76495L4.75802 24.8528C-1.58647 19.0216 -1.58468 9.00361 4.75541 3.17367L25.0616 25.2567ZM5.93753 -4.31646C10.424 -4.31646 16.25 -0.696755 16.25 6.37423H-13.75C-13.75 18.1978 -3.71866 25.6835 5.93753 25.6835V-4.31646ZM16.25 6.37423C16.25 13.4452 10.424 17.0649 5.93753 17.0649V-12.9351C-3.71867 -12.9351 -13.75 -5.44932 -13.75 6.37423H16.25ZM5.93753 17.0649C1.45101 17.0649 -4.37496 13.4452 -4.37496 6.37423H25.625C25.625 -5.44932 15.5937 -12.9351 5.93753 -12.9351V17.0649ZM-4.37496 6.37423C-4.37496 -0.696752 1.45101 -4.31646 5.93753 -4.31646V25.6835C15.5937 25.6835 25.625 18.1978 25.625 6.37423H-4.37496Z" fill="black" mask="url(#path-1-inside-1)"/>
</svg>
