<svg width="11" height="11" viewBox="0 0 11 11" fill="none" xmlns="http://www.w3.org/2000/svg">
<path d="M10.9301 5.28605C10.8318 5.15162 8.49038 1.99451 5.49995 1.99451C2.50951 1.99451 0.167965 5.15162 0.0698029 5.28592C-0.0232676 5.41345 -0.0232676 5.58642 0.0698029 5.71395C0.167965 5.84838 2.50951 9.0055 5.49995 9.0055C8.49038 9.0055 10.8318 5.84836 10.9301 5.71406C11.0233 5.58655 11.0233 5.41345 10.9301 5.28605ZM5.49995 8.28022C3.29717 8.28022 1.38933 6.18478 0.824572 5.49975C1.3886 4.81412 3.29244 2.71978 5.49995 2.71978C7.70261 2.71978 9.61032 4.81485 10.1753 5.50025C9.61129 6.18586 7.70745 8.28022 5.49995 8.28022Z" fill="#8D8D8D"/>
<path d="M5.50011 3.32419C4.30038 3.32419 3.32428 4.30029 3.32428 5.50002C3.32428 6.69975 4.30038 7.67586 5.50011 7.67586C6.69984 7.67586 7.67594 6.69975 7.67594 5.50002C7.67594 4.30029 6.69984 3.32419 5.50011 3.32419ZM5.50011 6.95056C4.70025 6.95056 4.04957 6.29987 4.04957 5.50002C4.04957 4.70018 4.70027 4.04948 5.50011 4.04948C6.29995 4.04948 6.95065 4.70018 6.95065 5.50002C6.95065 6.29987 6.29997 6.95056 5.50011 6.95056Z" fill="#8D8D8D"/>
<path d="M10.9301 5.28605C10.8318 5.15162 8.49038 1.99451 5.49995 1.99451C2.50951 1.99451 0.167965 5.15162 0.0698029 5.28592C-0.0232676 5.41345 -0.0232676 5.58642 0.0698029 5.71395C0.167965 5.84838 2.50951 9.0055 5.49995 9.0055C8.49038 9.0055 10.8318 5.84836 10.9301 5.71406C11.0233 5.58655 11.0233 5.41345 10.9301 5.28605ZM5.49995 8.28022C3.29717 8.28022 1.38933 6.18478 0.824572 5.49975C1.3886 4.81412 3.29244 2.71978 5.49995 2.71978C7.70261 2.71978 9.61032 4.81485 10.1753 5.50025C9.61129 6.18586 7.70745 8.28022 5.49995 8.28022Z" fill="#8D8D8D"/>
<path d="M5.50011 3.32419C4.30038 3.32419 3.32428 4.30029 3.32428 5.50002C3.32428 6.69975 4.30038 7.67586 5.50011 7.67586C6.69984 7.67586 7.67594 6.69975 7.67594 5.50002C7.67594 4.30029 6.69984 3.32419 5.50011 3.32419ZM5.50011 6.95056C4.70025 6.95056 4.04957 6.29987 4.04957 5.50002C4.04957 4.70018 4.70027 4.04948 5.50011 4.04948C6.29995 4.04948 6.95065 4.70018 6.95065 5.50002C6.95065 6.29987 6.29997 6.95056 5.50011 6.95056Z" fill="#8D8D8D"/>
<path d="M10.9301 5.28605C10.8318 5.15162 8.49038 1.99451 5.49995 1.99451C2.50951 1.99451 0.167965 5.15162 0.0698029 5.28592C-0.0232676 5.41345 -0.0232676 5.58642 0.0698029 5.71395C0.167965 5.84838 2.50951 9.0055 5.49995 9.0055C8.49038 9.0055 10.8318 5.84836 10.9301 5.71406C11.0233 5.58655 11.0233 5.41345 10.9301 5.28605ZM5.49995 8.28022C3.29717 8.28022 1.38933 6.18478 0.824572 5.49975C1.3886 4.81412 3.29244 2.71978 5.49995 2.71978C7.70261 2.71978 9.61032 4.81485 10.1753 5.50025C9.61129 6.18586 7.70745 8.28022 5.49995 8.28022Z" fill="#8D8D8D"/>
<path d="M5.50011 3.32419C4.30038 3.32419 3.32428 4.30029 3.32428 5.50002C3.32428 6.69975 4.30038 7.67586 5.50011 7.67586C6.69984 7.67586 7.67594 6.69975 7.67594 5.50002C7.67594 4.30029 6.69984 3.32419 5.50011 3.32419ZM5.50011 6.95056C4.70025 6.95056 4.04957 6.29987 4.04957 5.50002C4.04957 4.70018 4.70027 4.04948 5.50011 4.04948C6.29995 4.04948 6.95065 4.70018 6.95065 5.50002C6.95065 6.29987 6.29997 6.95056 5.50011 6.95056Z" fill="#8D8D8D"/>
<path d="M10.9301 5.28605C10.8318 5.15162 8.49038 1.99451 5.49995 1.99451C2.50951 1.99451 0.167965 5.15162 0.0698029 5.28592C-0.0232676 5.41345 -0.0232676 5.58642 0.0698029 5.71395C0.167965 5.84838 2.50951 9.0055 5.49995 9.0055C8.49038 9.0055 10.8318 5.84836 10.9301 5.71406C11.0233 5.58655 11.0233 5.41345 10.9301 5.28605ZM5.49995 8.28022C3.29717 8.28022 1.38933 6.18478 0.824572 5.49975C1.3886 4.81412 3.29244 2.71978 5.49995 2.71978C7.70261 2.71978 9.61032 4.81485 10.1753 5.50025C9.61129 6.18586 7.70745 8.28022 5.49995 8.28022Z" fill="#E8E5E5"/>
<path d="M5.50011 3.32419C4.30038 3.32419 3.32428 4.30029 3.32428 5.50002C3.32428 6.69975 4.30038 7.67586 5.50011 7.67586C6.69984 7.67586 7.67594 6.69975 7.67594 5.50002C7.67594 4.30029 6.69984 3.32419 5.50011 3.32419ZM5.50011 6.95056C4.70025 6.95056 4.04957 6.29987 4.04957 5.50002C4.04957 4.70018 4.70027 4.04948 5.50011 4.04948C6.29995 4.04948 6.95065 4.70018 6.95065 5.50002C6.95065 6.29987 6.29997 6.95056 5.50011 6.95056Z" fill="#E8E5E5"/>
<path d="M9.5 1L0.5 10" stroke="#E8E5E5"/>
</svg>
