<svg width="15" height="15" viewBox="0 0 15 15" fill="none" xmlns="http://www.w3.org/2000/svg">
<path d="M14.8449 6.71688C13.6255 3.77562 10.7424 1.875 7.49987 1.875C4.25737 1.875 1.37425 3.77562 0.154871 6.71688C-0.0513794 7.21438 -0.0513794 7.785 0.154871 8.28312C1.37425 11.2244 4.25737 13.125 7.49987 13.125C10.7424 13.125 13.6255 11.2244 14.8449 8.28312C15.0511 7.78562 15.0511 7.21438 14.8449 6.71688ZM7.49987 10C6.12112 10 4.99987 8.87875 4.99987 7.5C4.99987 6.12125 6.12112 5 7.49987 5C8.87862 5 9.99987 6.12125 9.99987 7.5C9.99987 8.87875 8.87862 10 7.49987 10Z" fill="black"/>
</svg>
